<?xml version="1.0" encoding="utf-8"?>
<!-- Generator: Adobe Illustrator 16.0.0, SVG Export Plug-In . SVG Version: 6.00 Build 0)  -->
<!DOCTYPE svg PUBLIC "-//W3C//DTD SVG 1.1//EN" "http://www.w3.org/Graphics/SVG/1.1/DTD/svg11.dtd">
<svg version="1.1" id="Layer_1" xmlns="http://www.w3.org/2000/svg" xmlns:xlink="http://www.w3.org/1999/xlink" x="0px" y="0px"
	 width="525px" height="200px" viewBox="0 0 525 200" enable-background="new 0 0 525 200" xml:space="preserve">
<g>
	<g>
		
			<rect x="86.529" y="9.392" transform="matrix(0.5001 0.866 -0.866 0.5001 131.0837 -25.8916)" fill="#0091F4" width="2.876" height="182.388"/>
	</g>
	<g>
		
			<rect x="34.612" y="98.756" transform="matrix(0.4994 0.8664 -0.8664 0.4994 130.7296 -25.8569)" fill="#0091F4" width="106.254" height="2.875"/>
	</g>
	<g>
		<path fill="#FF0000" d="M95.011,9.271c0.001,3.71-3.004,6.714-6.71,6.714c-3.705,0.003-6.714-3-6.712-6.712
			c-0.001-3.701,3.001-6.71,6.707-6.711C92.001,2.562,95.01,5.57,95.011,9.271z"/>
	</g>
	<g>
		<path fill="#0091F4" d="M173.652,54.976c0,3.707-3.001,6.711-6.71,6.714c-3.712,0-6.716-3.005-6.716-6.71
			c0-3.709,3.001-6.712,6.712-6.713C170.647,48.264,173.648,51.269,173.652,54.976z"/>
	</g>
	<g>
		<path fill="#0091F4" d="M121.369,146.191c0.003,3.706-3.002,6.709-6.709,6.708c-3.71,0.001-6.713-3-6.712-6.706
			c-0.001-3.71,2.999-6.714,6.71-6.715C118.363,139.476,121.369,142.481,121.369,146.191z"/>
	</g>
	<g>
		<path fill="#70F95D" d="M121.407,54.901c0,3.708-3.007,6.71-6.712,6.713c-3.711,0-6.715-3-6.716-6.709
			c0.001-3.708,3.005-6.717,6.711-6.714C118.396,48.191,121.407,51.194,121.407,54.901z"/>
	</g>
	<g>
		<path fill="#70F95D" d="M68.545,146.182c0,3.706-3.006,6.71-6.712,6.713c-3.707-0.001-6.715-3.004-6.713-6.708
			c-0.003-3.707,3.003-6.716,6.709-6.716C65.535,139.47,68.543,142.477,68.545,146.182z"/>
	</g>
	<g>
		<path fill="#0091F4" d="M68.524,54.913c0,3.709-3.002,6.712-6.712,6.712c-3.706,0-6.715-3.001-6.715-6.709
			c0.001-3.707,3.003-6.713,6.711-6.713C65.517,48.202,68.524,51.205,68.524,54.913z"/>
	</g>
	<g>
		<path fill="#70F95D" d="M16.021,54.926c0.001,3.71-3.005,6.712-6.711,6.711c-3.71,0.001-6.718-2.998-6.719-6.708
			c0.001-3.707,3.008-6.713,6.714-6.713C13.013,48.216,16.021,51.219,16.021,54.926z"/>
	</g>
	<g>
		<path fill="#FF0000" d="M94.819,191.852c0.001,3.705-3.004,6.716-6.714,6.715c-3.707,0.001-6.71-3.007-6.709-6.715
			c-0.002-3.704,2.999-6.708,6.708-6.709C91.814,185.142,94.819,188.145,94.819,191.852z"/>
	</g>
	<g>
		<path fill="#0091F4" d="M15.712,146.193c0,3.706-3.011,6.711-6.711,6.713c-3.711,0.001-6.717-3.004-6.716-6.711
			c-0.003-3.706,3.001-6.711,6.711-6.714C12.702,139.48,15.71,142.488,15.712,146.193z"/>
	</g>
	<g>
		<path fill="#70F95D" d="M173.877,146.022c-0.003,3.706-3.009,6.71-6.71,6.71c-3.708,0.001-6.713-3.001-6.717-6.706
			c0-3.705,3.008-6.716,6.717-6.718C170.869,139.307,173.874,142.316,173.877,146.022z"/>
	</g>
	<g>
		<circle fill="#FF0000" cx="35.534" cy="100.664" r="6.714"/>
	</g>
	<g>
		<path fill="#FF0000" d="M147.694,100.638c0,3.709-3,6.717-6.71,6.715c-3.706,0.002-6.713-3.005-6.712-6.713
			c-0.002-3.703,3.003-6.713,6.71-6.712C144.692,93.928,147.693,96.935,147.694,100.638z"/>
	</g>
	<g>
		
			<rect x="-3.087" y="99.126" transform="matrix(0.8655 0.5008 -0.5008 0.8655 62.2238 -30.653)" fill="#70F95D" width="182.579" height="2.876"/>
	</g>
	<g>
		
			<rect x="86.282" y="47.649" transform="matrix(0.8629 0.5054 -0.5054 0.8629 62.9961 -30.5058)" fill="#70F95D" width="2.875" height="106.397"/>
	</g>
	<g>
		
			<rect x="28.903" y="99.311" transform="matrix(1 0.0011 -0.0011 1 0.1069 -0.0931)" fill="#FF0000" width="117.875" height="2.875"/>
	</g>
	<g>
		<rect x="86.765" y="9.275" fill="#FF0000" width="2.875" height="182.579"/>
	</g>
</g>
<path fill="#828282" d="M504.936,68.752l-21.635,33.234v31.032h-11.479v-31.032c-1.65-2.569-3.4-5.262-5.242-8.079
	c-1.846-2.814-3.689-5.661-5.533-8.537c-1.846-2.876-3.689-5.723-5.533-8.539c-1.846-2.815-3.594-5.508-5.244-8.079h14.121
	l13.213,20.382l13.131-20.382H504.936z"/>
<path fill="#828282" d="M374.508,133.019V68.752h12.67v64.266H374.508z"/>
<path fill="#828282" d="M332.15,133.66l-28.92-64.908h13.955l17.537,39.295c2.873-6.55,5.768-13.115,8.674-19.693
	c2.908-6.579,5.832-13.113,8.768-19.602h13.957l-28.646,64.908H332.15z"/>
<path fill="#828282" d="M240.114,68.752v64.266H227.35v-25.706h-25.522v25.706h-12.67V68.752h12.67v25.706h25.522V68.752H240.114z"
	/>
<path fill="#828282" d="M283.307,68.11l28.919,64.908h-13.955l-17.536-39.293c-2.874,6.548-5.768,13.112-8.675,19.691
	c-2.907,6.581-5.83,13.115-8.77,19.603h-13.953l28.645-64.908H283.307z"/>
<polygon fill="#828282" points="334.676,139.373 337.475,133.66 332.152,133.66 "/>
<path fill="#828282" d="M448.146,94.587h-8.365h-22.246h-0.215l16.844-25.834h-14.275c-3.006,4.527-5.994,9.088-8.969,13.679
	c-2.973,4.59-7.051,10.646-9.99,15.214l-0.049-0.071l-6,8.968h6h8.391h0.281h22.248l0,0l-16.963,26.477h14.273
	c3.006-4.527,5.996-9.086,8.969-13.677c2.975-4.593,15.785-24.755,15.785-24.755H448.146z"/>
</svg>
